/* XPM */
static char * arch_20_xpm[] = {
"20 20 2 1",
" 	c None",
".	c #F2F0EC",
"                    ",
"          .         ",
"          .         ",
"         ...        ",
"         ...        ",
"        .....       ",
"        .....       ",
"       .......      ",
"       .......      ",
"      .........     ",
"      .........     ",
"     ..... .....    ",
"     ....   ....    ",
"    .....   .....   ",
"    .....   .....   ",
"   ......   ......  ",
"   ...         ...  ",
"  .               . ",
"                    ",
"                    "};
